Blackout Midnight.ufo
<glyph name="exclam" format="1">
  <advance width="235"/>
  <unicode hex="0021"/>
  <outline>
    <contour>
      <point x="4" y="0" type="line"/>
      <point x="4" y="168" type="line"/>
      <point x="171" y="168" type="line"/>
      <point x="171" y="0" type="line"/>
    </contour>
    <contour>
      <point x="171" y="227" type="line"/>
      <point x="3" y="227" type="line"/>
      <point x="3" y="744" type="line"/>
      <point x="171" y="744" type="line"/>
    </contour>
  </outline>
</glyph>
<glyph name="dollar" format="1">
  <advance width="454"/>
  <unicode hex="0024"/>
  <outline>
    <contour>
      <point x="256" y="462"/>
      <point x="306" y="439"/>
      <point x="342" y="403" type="curve" smooth="yes"/>
      <point x="378" y="367"/>
      <point x="401" y="317"/>
      <point x="401" y="262" type="curve" smooth="yes"/>
      <point x="401" y="185"/>
      <point x="359" y="120"/>
      <point x="295" y="85" type="curve"/>
      <point x="295" y="0" type="line"/>
      <point x="127" y="0" type="line"/>
      <point x="127" y="76" type="line"/>
      <point x="90" y="91"/>
      <point x="59" y="116"/>
      <point x="37" y="149" type="curve" smooth="yes"/>
      <point x="15" y="181"/>
      <point x="1" y="221"/>
      <point x="1" y="262" type="curve"/>
      <point x="167" y="262" type="line"/>
      <point x="167" y="243"/>
      <point x="182" y="228"/>
      <point x="201" y="228" type="curve" smooth="yes"/>
      <point x="220" y="228"/>
      <point x="235" y="243"/>
      <point x="235" y="262" type="curve" smooth="yes"/>
      <point x="235" y="279"/>
      <point x="223" y="292"/>
      <point x="207" y="295" type="curve"/>
      <point x="201" y="295" type="line" smooth="yes"/>
      <point x="146" y="295"/>
      <point x="96" y="318"/>
      <point x="60" y="354" type="curve" smooth="yes"/>
      <point x="24" y="390"/>
      <point x="1" y="440"/>
      <point x="1" y="495" type="curve" smooth="yes"/>
      <point x="1" y="580"/>
      <point x="52" y="651"/>
      <point x="127" y="682" type="curve"/>
      <point x="127" y="749" type="line"/>
      <point x="295" y="749" type="line"/>
      <point x="295" y="673" type="line"/>
      <point x="359" y="638"/>
      <point x="401" y="572"/>
      <point x="401" y="495" type="curve"/>
      <point x="235" y="495" type="line"/>
      <point x="235" y="514"/>
      <point x="220" y="530"/>
      <point x="201" y="530" type="curve" smooth="yes"/>
      <point x="182" y="530"/>
      <point x="167" y="514"/>
      <point x="167" y="495" type="curve" smooth="yes"/>
      <point x="167" y="479"/>
      <point x="179" y="465"/>
      <point x="195" y="462" type="curve"/>
      <point x="201" y="462" type="line" smooth="yes"/>
    </contour>
  </outline>
</glyph>
<glyph name="percent" format="1">
  <advance width="757"/>
  <unicode hex="0025"/>
  <outline>
    <contour>
      <point x="649" y="744" type="line"/>
      <point x="212" y="0" type="line"/>
      <point x="44" y="0" type="line"/>
      <point x="481" y="744" type="line"/>
    </contour>
    <contour>
      <point x="242" y="468"/>
      <point x="229" y="438"/>
      <point x="207" y="416" type="curve" smooth="yes"/>
      <point x="185" y="394"/>
      <point x="155" y="380"/>
      <point x="122" y="380" type="curve" smooth="yes"/>
      <point x="89" y="380"/>
      <point x="59" y="394"/>
      <point x="37" y="416" type="curve" smooth="yes"/>
      <point x="15" y="438"/>
      <point x="1" y="468"/>
      <point x="1" y="501" type="curve" smooth="yes"/>
      <point x="1" y="534"/>
      <point x="15" y="565"/>
      <point x="37" y="587" type="curve" smooth="yes"/>
      <point x="59" y="609"/>
      <point x="89" y="622"/>
      <point x="122" y="622" type="curve" smooth="yes"/>
      <point x="155" y="622"/>
      <point x="185" y="609"/>
      <point x="207" y="587" type="curve" smooth="yes"/>
      <point x="229" y="565"/>
      <point x="242" y="534"/>
      <point x="242" y="501" type="curve" smooth="yes"/>
    </contour>
    <contour>
      <point x="713" y="224"/>
      <point x="700" y="194"/>
      <point x="678" y="172" type="curve" smooth="yes"/>
      <point x="656" y="150"/>
      <point x="625" y="136"/>
      <point x="592" y="136" type="curve" smooth="yes"/>
      <point x="559" y="136"/>
      <point x="529" y="150"/>
      <point x="507" y="172" type="curve" smooth="yes"/>
      <point x="485" y="194"/>
      <point x="471" y="224"/>
      <point x="471" y="257" type="curve" smooth="yes"/>
      <point x="471" y="290"/>
      <point x="485" y="320"/>
      <point x="507" y="342" type="curve" smooth="yes"/>
      <point x="529" y="364"/>
      <point x="559" y="377"/>
      <point x="592" y="377" type="curve" smooth="yes"/>
      <point x="625" y="377"/>
      <point x="656" y="364"/>
      <point x="678" y="342" type="curve" smooth="yes"/>
      <point x="700" y="320"/>
      <point x="713" y="290"/>
      <point x="713" y="257" type="curve" smooth="yes"/>
    </contour>
  </outline>
</glyph>
<glyph name="ampersand" format="1">
  <advance width="701"/>
  <unicode hex="0026"/>
  <outline>
    <contour>
      <point x="539" y="192" type="line"/>
      <point x="631" y="99" type="line"/>
      <point x="528" y="-4" type="line"/>
      <point x="437" y="87" type="line"/>
      <point x="390" y="34"/>
      <point x="325" y="0"/>
      <point x="249" y="0" type="curve" smooth="yes"/>
      <point x="181" y="0"/>
      <point x="118" y="28"/>
      <point x="73" y="73" type="curve" smooth="yes"/>
      <point x="28" y="117"/>
      <point x="0" y="180"/>
      <point x="0" y="248" type="curve" smooth="yes"/>
      <point x="0" y="335"/>
      <point x="43" y="410"/>
      <point x="110" y="454" type="curve"/>
      <point x="87" y="485"/>
      <point x="75" y="520"/>
      <point x="75" y="560" type="curve" smooth="yes"/>
      <point x="75" y="608"/>
      <point x="94" y="651"/>
      <point x="126" y="683" type="curve" smooth="yes"/>
      <point x="158" y="714"/>
      <point x="201" y="733"/>
      <point x="249" y="733" type="curve" smooth="yes"/>
      <point x="297" y="733"/>
      <point x="340" y="714"/>
      <point x="372" y="683" type="curve" smooth="yes"/>
      <point x="403" y="651"/>
      <point x="422" y="608"/>
      <point x="422" y="560" type="curve" smooth="yes"/>
      <point x="422" y="492"/>
      <point x="383" y="433"/>
      <point x="326" y="405" type="curve"/>
      <point x="439" y="291" type="line"/>
      <point x="537" y="388" type="line"/>
      <point x="636" y="288" type="line"/>
    </contour>
  </outline>
</glyph>
<glyph name="quotesingle" format="1">
  <advance width="237"/>
  <unicode hex="0027"/>
  <outline>
    <contour>
      <point x="166" y="744" type="line"/>
      <point x="166" y="576" type="line"/>
      <point x="113" y="483" type="line"/>
      <point x="11" y="483" type="line"/>
      <point x="64" y="576" type="line"/>
      <point x="-1" y="576" type="line"/>
      <point x="-1" y="744" type="line"/>
    </contour>
  </outline>
</glyph>
<glyph name="asterisk" format="1">
  <advance width="437"/>
  <unicode hex="002A"/>
  <outline>
    <contour>
      <point x="279" y="585" type="line"/>
      <point x="349" y="515" type="line"/>
      <point x="272" y="437" type="line"/>
      <point x="180" y="529" type="line"/>
      <point x="87" y="435" type="line"/>
      <point x="9" y="512" type="line"/>
      <point x="82" y="585" type="line"/>
      <point x="-18" y="612" type="line"/>
      <point x="10" y="718" type="line"/>
      <point x="124" y="688" type="line"/>
      <point x="124" y="792" type="line"/>
      <point x="234" y="792" type="line"/>
      <point x="234" y="687" type="line"/>
      <point x="350" y="718" type="line"/>
      <point x="378" y="612" type="line"/>
    </contour>
  </outline>
</glyph>
<glyph name="plus" format="1">
  <advance width="588"/>
  <unicode hex="002B"/>
  <outline>
    <contour>
      <point x="518" y="300" type="line"/>
      <point x="343" y="300" type="line"/>
      <point x="343" y="125" type="line"/>
      <point x="175" y="125" type="line"/>
      <point x="175" y="300" type="line"/>
      <point x="0" y="300" type="line"/>
      <point x="0" y="468" type="line"/>
      <point x="175" y="468" type="line"/>
      <point x="175" y="642" type="line"/>
      <point x="343" y="642" type="line"/>
      <point x="343" y="468" type="line"/>
      <point x="518" y="468" type="line"/>
    </contour>
  </outline>
</glyph>
<glyph name="comma" format="1">
  <advance width="233"/>
  <unicode hex="002C"/>
  <outline>
    <contour>
      <point x="168" y="168" type="line"/>
      <point x="168" y="0" type="line"/>
      <point x="115" y="-93" type="line"/>
      <point x="12" y="-93" type="line"/>
      <point x="65" y="0" type="line"/>
      <point x="1" y="0" type="line"/>
      <point x="1" y="168" type="line"/>
    </contour>
  </outline>
</glyph>
<glyph name="hyphen" format="1">
  <advance width="586"/>
  <unicode hex="002D"/>
  <outline>
    <contour>
      <point x="0" y="301" type="line"/>
      <point x="0" y="469" type="line"/>
      <point x="517" y="469" type="line"/>
      <point x="517" y="301" type="line"/>
    </contour>
  </outline>
</glyph>
<glyph name="period" format="1">
  <advance width="229"/>
  <unicode hex="002E"/>
  <outline>
    <contour>
      <point x="0" y="0" type="line"/>
      <point x="0" y="168" type="line"/>
      <point x="167" y="168" type="line"/>
      <point x="167" y="0" type="line"/>
    </contour>
  </outline>
</glyph>
<glyph name="zero" format="1">
  <advance width="507"/>
  <unicode hex="0030"/>
  <outline>
    <contour>
      <point x="458" y="229"/>
      <point x="458" y="229"/>
      <point x="459" y="228" type="curve"/>
      <point x="458" y="228" type="line"/>
      <point x="458" y="165"/>
      <point x="432" y="108"/>
      <point x="391" y="67" type="curve" smooth="yes"/>
      <point x="350" y="26"/>
      <point x="293" y="0"/>
      <point x="230" y="0" type="curve" smooth="yes"/>
      <point x="169" y="0"/>
      <point x="111" y="26"/>
      <point x="69" y="67" type="curve" smooth="yes"/>
      <point x="27" y="107"/>
      <point x="0" y="162"/>
      <point x="0" y="218" type="curve" smooth="yes"/>
      <point x="0" y="515" type="line" smooth="yes"/>
      <point x="0" y="578"/>
      <point x="26" y="636"/>
      <point x="68" y="677" type="curve" smooth="yes"/>
      <point x="110" y="718"/>
      <point x="166" y="744"/>
      <point x="230" y="744" type="curve" smooth="yes"/>
      <point x="293" y="744"/>
      <point x="350" y="718"/>
      <point x="391" y="677" type="curve" smooth="yes"/>
      <point x="432" y="636"/>
      <point x="458" y="578"/>
      <point x="458" y="515" type="curve" smooth="yes"/>
      <point x="458" y="514" type="line"/>
      <point x="459" y="514" type="line"/>
      <point x="458" y="514" type="line"/>
      <point x="458" y="510"/>
      <point x="458" y="506"/>
      <point x="459" y="502" type="curve"/>
      <point x="459" y="497"/>
      <point x="459" y="493"/>
      <point x="459" y="490" type="curve" smooth="yes"/>
      <point x="459" y="253" type="line" smooth="yes"/>
      <point x="459" y="250"/>
      <point x="459" y="246"/>
      <point x="459" y="242" type="curve"/>
      <point x="458" y="238"/>
      <point x="458" y="234"/>
      <point x="458" y="230" type="curve" smooth="yes"/>
      <point x="458" y="229" type="line"/>
    </contour>
  </outline>
</glyph>
<glyph name="one" format="1">
  <advance width="328"/>
  <unicode hex="0031"/>
  <outline>
    <contour>
      <point x="269" y="744" type="line"/>
      <point x="269" y="0" type="line"/>
      <point x="101" y="0" type="line"/>
      <point x="101" y="500" type="line"/>
      <point x="74" y="472" type="line"/>
      <point x="-45" y="591" type="line"/>
      <point x="101" y="744" type="line"/>
      <point x="101" y="744" type="line"/>
      <point x="101" y="744" type="line"/>
      <point x="101" y="744" type="line"/>
      <point x="101" y="744" type="line"/>
    </contour>
  </outline>
</glyph>
<glyph name="two" format="1">
  <advance width="511"/>
  <unicode hex="0032"/>
  <outline>
    <contour>
      <point x="220" y="168" type="line"/>
      <point x="451" y="168" type="line"/>
      <point x="451" y="0" type="line"/>
      <point x="4" y="0" type="line"/>
      <point x="4" y="168" type="line"/>
      <point x="276" y="482" type="line"/>
      <point x="282" y="491"/>
      <point x="285" y="502"/>
      <point x="285" y="514" type="curve" smooth="yes"/>
      <point x="285" y="519"/>
      <point x="284" y="525"/>
      <point x="283" y="532" type="curve"/>
      <point x="275" y="557"/>
      <point x="251" y="576"/>
      <point x="223" y="576" type="curve" smooth="yes"/>
      <point x="188" y="576"/>
      <point x="161" y="549"/>
      <point x="161" y="514" type="curve"/>
      <point x="-7" y="514" type="line"/>
      <point x="-7" y="577"/>
      <point x="19" y="635"/>
      <point x="61" y="677" type="curve" smooth="yes"/>
      <point x="103" y="719"/>
      <point x="160" y="744"/>
      <point x="223" y="744" type="curve" smooth="yes"/>
      <point x="275" y="744"/>
      <point x="322" y="727"/>
      <point x="361" y="699" type="curve" smooth="yes"/>
      <point x="400" y="670"/>
      <point x="428" y="629"/>
      <point x="443" y="582" type="curve" smooth="yes"/>
      <point x="450" y="561"/>
      <point x="453" y="539"/>
      <point x="453" y="514" type="curve" smooth="yes"/>
      <point x="453" y="450"/>
      <point x="429" y="399"/>
      <point x="386" y="354" type="curve" smooth="yes"/>
    </contour>
  </outline>
</glyph>
<glyph name="three" format="1">
  <advance width="504"/>
  <unicode hex="0033"/>
  <outline>
    <contour>
      <point x="460" y="180"/>
      <point x="446" y="137"/>
      <point x="418" y="97" type="curve" smooth="yes"/>
      <point x="390" y="57"/>
      <point x="351" y="28"/>
      <point x="304" y="12" type="curve" smooth="yes"/>
      <point x="281" y="4"/>
      <point x="256" y="0"/>
      <point x="230" y="0" type="curve" smooth="yes"/>
      <point x="166" y="0"/>
      <point x="110" y="26"/>
      <point x="68" y="68" type="curve" smooth="yes"/>
      <point x="26" y="110"/>
      <point x="0" y="167"/>
      <point x="0" y="231" type="curve"/>
      <point x="168" y="231" type="line"/>
      <point x="168" y="196"/>
      <point x="195" y="168"/>
      <point x="230" y="168" type="curve" smooth="yes"/>
      <point x="258" y="168"/>
      <point x="281" y="187"/>
      <point x="289" y="212" type="curve"/>
      <point x="291" y="217"/>
      <point x="292" y="223"/>
      <point x="292" y="230" type="curve" smooth="yes"/>
      <point x="292" y="265"/>
      <point x="265" y="288"/>
      <point x="230" y="288" type="curve" smooth="yes"/>
      <point x="124" y="288" type="line"/>
      <point x="124" y="456" type="line"/>
      <point x="230" y="456" type="line" smooth="yes"/>
      <point x="265" y="456"/>
      <point x="292" y="479"/>
      <point x="292" y="514" type="curve" smooth="yes"/>
      <point x="292" y="521"/>
      <point x="291" y="527"/>
      <point x="289" y="532" type="curve"/>
      <point x="281" y="557"/>
      <point x="258" y="576"/>
      <point x="230" y="576" type="curve" smooth="yes"/>
      <point x="195" y="576"/>
      <point x="168" y="549"/>
      <point x="168" y="514" type="curve"/>
      <point x="0" y="514" type="line"/>
      <point x="0" y="577"/>
      <point x="26" y="635"/>
      <point x="68" y="677" type="curve" smooth="yes"/>
      <point x="110" y="719"/>
      <point x="166" y="744"/>
      <point x="230" y="744" type="curve" smooth="yes"/>
      <point x="282" y="744"/>
      <point x="329" y="727"/>
      <point x="368" y="699" type="curve" smooth="yes"/>
      <point x="407" y="670"/>
      <point x="435" y="629"/>
      <point x="450" y="582" type="curve" smooth="yes"/>
      <point x="457" y="561"/>
      <point x="460" y="539"/>
      <point x="460" y="514" type="curve" smooth="yes"/>
      <point x="460" y="459"/>
      <point x="441" y="411"/>
      <point x="409" y="372" type="curve"/>
      <point x="441" y="333"/>
      <point x="460" y="286"/>
      <point x="460" y="231" type="curve" smooth="yes"/>
    </contour>
  </outline>
</glyph>
<glyph name="four" format="1">
  <advance width="540"/>
  <unicode hex="0034"/>
  <outline>
    <contour>
      <point x="495" y="288" type="line"/>
      <point x="405" y="288" type="line"/>
      <point x="405" y="0" type="line"/>
      <point x="237" y="0" type="line"/>
      <point x="237" y="288" type="line"/>
      <point x="-8" y="288" type="line"/>
      <point x="-8" y="456" type="line"/>
      <point x="-8" y="456" type="line"/>
      <point x="237" y="742" type="line"/>
      <point x="237" y="744" type="line"/>
      <point x="405" y="744" type="line"/>
      <point x="405" y="456" type="line"/>
      <point x="495" y="456" type="line"/>
    </contour>
  </outline>
</glyph>
<glyph name="five" format="1">
  <advance width="509"/>
  <unicode hex="0035"/>
  <outline>
    <contour>
      <point x="168" y="574" type="line"/>
      <point x="168" y="509" type="line"/>
      <point x="188" y="514"/>
      <point x="207" y="517"/>
      <point x="230" y="517" type="curve" smooth="yes"/>
      <point x="303" y="517"/>
      <point x="360" y="491"/>
      <point x="400" y="454" type="curve" smooth="yes"/>
      <point x="439" y="417"/>
      <point x="460" y="366"/>
      <point x="460" y="318" type="curve" smooth="yes"/>
      <point x="460" y="290" type="line"/>
      <point x="460" y="287" type="line"/>
      <point x="460" y="230" type="line" smooth="yes"/>
      <point x="460" y="166"/>
      <point x="435" y="109"/>
      <point x="393" y="67" type="curve" smooth="yes"/>
      <point x="351" y="25"/>
      <point x="293" y="-1"/>
      <point x="230" y="-1" type="curve" smooth="yes"/>
      <point x="166" y="-1"/>
      <point x="110" y="25"/>
      <point x="68" y="67" type="curve" smooth="yes"/>
      <point x="26" y="109"/>
      <point x="0" y="166"/>
      <point x="0" y="230" type="curve"/>
      <point x="168" y="230" type="line"/>
      <point x="168" y="195"/>
      <point x="195" y="167"/>
      <point x="230" y="167" type="curve" smooth="yes"/>
      <point x="265" y="167"/>
      <point x="296" y="195"/>
      <point x="296" y="230" type="curve" smooth="yes"/>
      <point x="296" y="287" type="line" smooth="yes"/>
      <point x="296" y="319"/>
      <point x="271" y="349"/>
      <point x="230" y="349" type="curve" smooth="yes"/>
      <point x="195" y="349"/>
      <point x="168" y="322"/>
      <point x="168" y="287" type="curve"/>
      <point x="0" y="287" type="line"/>
      <point x="0" y="574" type="line"/>
      <point x="-1" y="574" type="line"/>
      <point x="-1" y="742" type="line"/>
      <point x="446" y="742" type="line"/>
      <point x="446" y="574" type="line"/>
    </contour>
  </outline>
</glyph>
<glyph name="six" format="1">
  <advance width="511"/>
  <unicode hex="0036"/>
  <outline>
    <contour>
      <point x="461" y="229" type="line" smooth="yes"/>
      <point x="461" y="165"/>
      <point x="434" y="109"/>
      <point x="393" y="67" type="curve" smooth="yes"/>
      <point x="352" y="25"/>
      <point x="294" y="-1"/>
      <point x="231" y="-1" type="curve" smooth="yes"/>
      <point x="168" y="-1"/>
      <point x="111" y="24"/>
      <point x="69" y="65" type="curve" smooth="yes"/>
      <point x="27" y="105"/>
      <point x="0" y="161"/>
      <point x="0" y="222" type="curve" smooth="yes"/>
      <point x="0" y="528" type="line" smooth="yes"/>
      <point x="0" y="587"/>
      <point x="28" y="641"/>
      <point x="70" y="681" type="curve" smooth="yes"/>
      <point x="112" y="721"/>
      <point x="170" y="747"/>
      <point x="231" y="747" type="curve" smooth="yes"/>
      <point x="294" y="747"/>
      <point x="352" y="722"/>
      <point x="394" y="680" type="curve" smooth="yes"/>
      <point x="436" y="638"/>
      <point x="461" y="580"/>
      <point x="461" y="516" type="curve"/>
      <point x="293" y="516" type="line"/>
      <point x="293" y="551"/>
      <point x="266" y="579"/>
      <point x="231" y="579" type="curve" smooth="yes"/>
      <point x="196" y="579"/>
      <point x="169" y="551"/>
      <point x="169" y="516" type="curve"/>
      <point x="168" y="516" type="line"/>
      <point x="168" y="450" type="line"/>
      <point x="188" y="456"/>
      <point x="209" y="459"/>
      <point x="231" y="459" type="curve" smooth="yes"/>
      <point x="294" y="459"/>
      <point x="352" y="433"/>
      <point x="393" y="392" type="curve" smooth="yes"/>
      <point x="434" y="351"/>
      <point x="461" y="293"/>
      <point x="461" y="230" type="curve" smooth="yes"/>
    </contour>
  </outline>
</glyph>
<glyph name="seven" format="1">
  <advance width="520"/>
  <unicode hex="0037"/>
  <outline>
    <contour>
      <point x="474" y="744" type="line"/>
      <point x="474" y="576" type="line"/>
      <point x="163" y="0" type="line"/>
      <point x="-5" y="0" type="line"/>
      <point x="305" y="576" type="line"/>
      <point x="1" y="576" type="line"/>
      <point x="1" y="744" type="line"/>
      <point x="395" y="744" type="line"/>
      <point x="395" y="744" type="line"/>
      <point x="405" y="744" type="line"/>
      <point x="405" y="744" type="line"/>
    </contour>
  </outline>
</glyph>
<glyph name="eight" format="1">
  <advance width="505"/>
  <unicode hex="0038"/>
  <outline>
    <contour>
      <point x="460" y="229" type="line" smooth="yes"/>
      <point x="460" y="166"/>
      <point x="433" y="108"/>
      <point x="392" y="67" type="curve" smooth="yes"/>
      <point x="351" y="26"/>
      <point x="293" y="0"/>
      <point x="230" y="0" type="curve" smooth="yes"/>
      <point x="167" y="0"/>
      <point x="109" y="26"/>
      <point x="68" y="67" type="curve" smooth="yes"/>
      <point x="27" y="108"/>
      <point x="0" y="166"/>
      <point x="0" y="229" type="curve" smooth="yes"/>
      <point x="0" y="230" type="line" smooth="yes"/>
      <point x="0" y="286"/>
      <point x="20" y="333"/>
      <point x="52" y="372" type="curve"/>
      <point x="20" y="411"/>
      <point x="0" y="458"/>
      <point x="0" y="514" type="curve" smooth="yes"/>
      <point x="0" y="515" type="line" smooth="yes"/>
      <point x="0" y="578"/>
      <point x="27" y="636"/>
      <point x="68" y="677" type="curve" smooth="yes"/>
      <point x="109" y="718"/>
      <point x="167" y="744"/>
      <point x="230" y="744" type="curve" smooth="yes"/>
      <point x="293" y="744"/>
      <point x="351" y="718"/>
      <point x="392" y="677" type="curve" smooth="yes"/>
      <point x="433" y="636"/>
      <point x="460" y="578"/>
      <point x="460" y="515" type="curve" smooth="yes"/>
      <point x="460" y="514" type="line" smooth="yes"/>
      <point x="460" y="458"/>
      <point x="440" y="411"/>
      <point x="408" y="372" type="curve"/>
      <point x="440" y="333"/>
      <point x="460" y="286"/>
      <point x="460" y="230" type="curve" smooth="yes"/>
    </contour>
  </outline>
</glyph>
<glyph name="nine" format="1">
  <advance width="511"/>
  <unicode hex="0039"/>
  <outline>
    <contour>
      <point x="1" y="517" type="line" smooth="yes"/>
      <point x="1" y="581"/>
      <point x="27" y="638"/>
      <point x="69" y="680" type="curve" smooth="yes"/>
      <point x="111" y="722"/>
      <point x="167" y="747"/>
      <point x="231" y="747" type="curve" smooth="yes"/>
      <point x="294" y="747"/>
      <point x="351" y="722"/>
      <point x="393" y="682" type="curve" smooth="yes"/>
      <point x="435" y="641"/>
      <point x="461" y="585"/>
      <point x="461" y="524" type="curve" smooth="yes"/>
      <point x="461" y="218" type="line" smooth="yes"/>
      <point x="461" y="161"/>
      <point x="435" y="105"/>
      <point x="393" y="65" type="curve" smooth="yes"/>
      <point x="351" y="25"/>
      <point x="292" y="-1"/>
      <point x="231" y="-1" type="curve" smooth="yes"/>
      <point x="167" y="-1"/>
      <point x="111" y="25"/>
      <point x="69" y="67" type="curve" smooth="yes"/>
      <point x="27" y="109"/>
      <point x="1" y="166"/>
      <point x="1" y="230" type="curve"/>
      <point x="169" y="230" type="line"/>
      <point x="169" y="195"/>
      <point x="196" y="167"/>
      <point x="231" y="167" type="curve" smooth="yes"/>
      <point x="266" y="167"/>
      <point x="293" y="195"/>
      <point x="293" y="230" type="curve" smooth="yes"/>
      <point x="293" y="296" type="line"/>
      <point x="273" y="290"/>
      <point x="252" y="287"/>
      <point x="231" y="287" type="curve" smooth="yes"/>
      <point x="167" y="287"/>
      <point x="111" y="313"/>
      <point x="69" y="354" type="curve" smooth="yes"/>
      <point x="27" y="395"/>
      <point x="1" y="453"/>
      <point x="1" y="516" type="curve" smooth="yes"/>
    </contour>
  </outline>
</glyph>
<glyph name="colon" format="1">
  <advance width="262"/>
  <unicode hex="003A"/>
  <outline>
    <contour>
      <point x="0" y="300" type="line"/>
      <point x="167" y="300" type="line"/>
      <point x="167" y="132" type="line"/>
      <point x="0" y="132" type="line"/>
    </contour>
    <contour>
      <point x="167" y="633" type="line"/>
      <point x="167" y="465" type="line"/>
      <point x="0" y="465" type="line"/>
      <point x="0" y="633" type="line"/>
    </contour>
  </outline>
</glyph>
<glyph name="semicolon" format="1">
  <advance width="245"/>
  <unicode hex="003B"/>
  <outline>
    <contour>
      <point x="0" y="302" type="line"/>
      <point x="166" y="302" type="line"/>
      <point x="166" y="134" type="line"/>
      <point x="113" y="41" type="line"/>
      <point x="11" y="41" type="line"/>
      <point x="64" y="134" type="line"/>
      <point x="0" y="134" type="line"/>
    </contour>
    <contour>
      <point x="166" y="635" type="line"/>
      <point x="166" y="467" type="line"/>
      <point x="0" y="467" type="line"/>
      <point x="0" y="635" type="line"/>
    </contour>
  </outline>
</glyph>
<glyph name="equal" format="1">
  <advance width="598"/>
  <unicode hex="003D"/>
  <outline>
    <contour>
      <point x="0" y="482" type="line"/>
      <point x="0" y="650" type="line"/>
      <point x="517" y="650" type="line"/>
      <point x="517" y="482" type="line"/>
    </contour>
    <contour>
      <point x="0" y="134" type="line"/>
      <point x="0" y="302" type="line"/>
      <point x="517" y="302" type="line"/>
      <point x="517" y="134" type="line"/>
    </contour>
  </outline>
</glyph>
<glyph name="question" format="1">
  <advance width="505"/>
  <unicode hex="003F"/>
  <outline>
    <contour>
      <point x="92" y="168" type="line"/>
      <point x="259" y="168" type="line"/>
      <point x="259" y="0" type="line"/>
      <point x="92" y="0" type="line"/>
    </contour>
    <contour>
      <point x="293" y="743"/>
      <point x="350" y="717"/>
      <point x="392" y="675" type="curve" smooth="yes"/>
      <point x="434" y="633"/>
      <point x="459" y="576"/>
      <point x="459" y="512" type="curve" smooth="yes"/>
      <point x="459" y="452"/>
      <point x="436" y="409"/>
      <point x="407" y="375" type="curve" smooth="yes"/>
      <point x="378" y="341"/>
      <point x="341" y="318"/>
      <point x="310" y="299" type="curve"/>
      <point x="301" y="293"/>
      <point x="293" y="288"/>
      <point x="284" y="284" type="curve"/>
      <point x="275" y="279"/>
      <point x="268" y="274"/>
      <point x="264" y="267" type="curve"/>
      <point x="262" y="264"/>
      <point x="261" y="260"/>
      <point x="260" y="256" type="curve"/>
      <point x="259" y="248"/>
      <point x="257" y="239"/>
      <point x="258" y="230" type="curve"/>
      <point x="92" y="230" type="line"/>
      <point x="92" y="260" type="line" smooth="yes"/>
      <point x="92" y="309"/>
      <point x="112" y="346"/>
      <point x="138" y="375" type="curve" smooth="yes"/>
      <point x="164" y="403"/>
      <point x="197" y="423"/>
      <point x="222" y="439" type="curve" smooth="yes"/>
      <point x="249" y="456"/>
      <point x="266" y="468"/>
      <point x="277" y="480" type="curve"/>
      <point x="288" y="491"/>
      <point x="292" y="500"/>
      <point x="292" y="512" type="curve" smooth="yes"/>
      <point x="292" y="547"/>
      <point x="264" y="576"/>
      <point x="229" y="576" type="curve" smooth="yes"/>
      <point x="189" y="576"/>
      <point x="157" y="547"/>
      <point x="157" y="512" type="curve"/>
      <point x="-9" y="512" type="line"/>
      <point x="-9" y="576"/>
      <point x="18" y="633"/>
      <point x="61" y="675" type="curve" smooth="yes"/>
      <point x="104" y="717"/>
      <point x="163" y="743"/>
      <point x="228" y="743" type="curve" smooth="yes"/>
      <point x="229" y="743" type="line" smooth="yes"/>
    </contour>
  </outline>
</glyph>
<glyph name="at" format="1">
  <advance width="781"/>
  <unicode hex="0040"/>
  <outline>
    <contour>
      <point x="414" y="526"/>
      <point x="453" y="508"/>
      <point x="481" y="480" type="curve" smooth="yes"/>
      <point x="509" y="452"/>
      <point x="526" y="414"/>
      <point x="526" y="371" type="curve" smooth="yes"/>
      <point x="526" y="363" type="line"/>
      <point x="527" y="356"/>
      <point x="530" y="350"/>
      <point x="533" y="347" type="curve" smooth="yes"/>
      <point x="536" y="344"/>
      <point x="538" y="342"/>
      <point x="539" y="342" type="curve"/>
      <point x="539" y="167" type="line"/>
      <point x="491" y="167"/>
      <point x="446" y="186"/>
      <point x="411" y="221" type="curve"/>
      <point x="398" y="218"/>
      <point x="386" y="216"/>
      <point x="371" y="216" type="curve" smooth="yes"/>
      <point x="328" y="216"/>
      <point x="290" y="234"/>
      <point x="262" y="262" type="curve" smooth="yes"/>
      <point x="234" y="290"/>
      <point x="217" y="328"/>
      <point x="217" y="371" type="curve" smooth="yes"/>
      <point x="217" y="414"/>
      <point x="234" y="452"/>
      <point x="262" y="480" type="curve" smooth="yes"/>
      <point x="290" y="508"/>
      <point x="328" y="526"/>
      <point x="371" y="526" type="curve" smooth="yes"/>
    </contour>
    <contour>
      <point x="338" y="172"/>
      <point x="383" y="170"/>
      <point x="428" y="183" type="curve"/>
      <point x="560" y="51" type="line"/>
      <point x="501" y="16"/>
      <point x="438" y="0"/>
      <point x="371" y="0" type="curve" smooth="yes"/>
      <point x="323" y="0"/>
      <point x="276" y="10"/>
      <point x="233" y="27" type="curve"/>
      <point x="232" y="27"/>
      <point x="230" y="28"/>
      <point x="229" y="29" type="curve"/>
      <point x="227" y="29" type="line"/>
      <point x="184" y="47"/>
      <point x="144" y="74"/>
      <point x="109" y="109" type="curve" smooth="yes"/>
      <point x="106" y="112"/>
      <point x="103" y="116"/>
      <point x="100" y="120" type="curve"/>
      <point x="97" y="123"/>
      <point x="93" y="127"/>
      <point x="90" y="130" type="curve"/>
      <point x="34" y="194"/>
      <point x="1" y="279"/>
      <point x="1" y="371" type="curve" smooth="yes"/>
      <point x="1" y="474"/>
      <point x="42" y="566"/>
      <point x="110" y="634" type="curve" smooth="yes"/>
      <point x="177" y="701"/>
      <point x="270" y="742"/>
      <point x="371" y="742" type="curve" smooth="yes"/>
      <point x="474" y="742"/>
      <point x="566" y="701"/>
      <point x="634" y="634" type="curve" smooth="yes"/>
      <point x="701" y="566"/>
      <point x="743" y="474"/>
      <point x="743" y="371" type="curve"/>
      <point x="567" y="371" type="line"/>
      <point x="567" y="426"/>
      <point x="545" y="474"/>
      <point x="510" y="510" type="curve" smooth="yes"/>
      <point x="474" y="545"/>
      <point x="426" y="567"/>
      <point x="371" y="567" type="curve" smooth="yes"/>
      <point x="318" y="567"/>
      <point x="268" y="545"/>
      <point x="233" y="510" type="curve" smooth="yes"/>
      <point x="197" y="474"/>
      <point x="175" y="426"/>
      <point x="175" y="371" type="curve" smooth="yes"/>
      <point x="175" y="291"/>
      <point x="222" y="224"/>
      <point x="290" y="193" type="curve"/>
      <point x="291" y="192"/>
      <point x="291" y="192"/>
      <point x="292" y="192" type="curve" smooth="yes"/>
      <point x="293" y="192"/>
      <point x="293" y="192"/>
      <point x="294" y="192" type="curve"/>
      <point x="294" y="191"/>
      <point x="294" y="191"/>
      <point x="295" y="191" type="curve"/>
    </contour>
    <contour>
      <point x="743" y="371" type="line"/>
      <point x="743" y="315"/>
      <point x="720" y="263"/>
      <point x="683" y="227" type="curve" smooth="yes"/>
      <point x="646" y="190"/>
      <point x="595" y="167"/>
      <point x="539" y="167" type="curve"/>
      <point x="539" y="342" type="line"/>
      <point x="555" y="342"/>
      <point x="567" y="355"/>
      <point x="567" y="371" type="curve"/>
    </contour>
  </outline>
</glyph>
<glyph name="B" format="1">
  <advance width="495"/>
  <unicode hex="0042"/>
  <outline>
    <contour>
      <point x="388" y="338"/>
      <point x="430" y="272"/>
      <point x="430" y="196" type="curve" smooth="yes"/>
      <point x="430" y="141"/>
      <point x="408" y="92"/>
      <point x="373" y="57" type="curve" smooth="yes"/>
      <point x="337" y="21"/>
      <point x="288" y="-1"/>
      <point x="233" y="-1" type="curve" smooth="yes"/>
      <point x="228" y="-1" type="line"/>
      <point x="0" y="-1" type="line"/>
      <point x="0" y="743" type="line"/>
      <point x="228" y="743" type="line"/>
      <point x="233" y="743" type="line" smooth="yes"/>
      <point x="288" y="743"/>
      <point x="337" y="721"/>
      <point x="373" y="686" type="curve" smooth="yes"/>
      <point x="408" y="650"/>
      <point x="430" y="601"/>
      <point x="430" y="546" type="curve" smooth="yes"/>
      <point x="430" y="470"/>
      <point x="388" y="404"/>
      <point x="324" y="371" type="curve"/>
    </contour>
  </outline>
</glyph>
<glyph name="C" format="1">
  <advance width="623"/>
  <unicode hex="0043"/>
  <outline>
    <contour>
      <point x="311" y="167"/>
      <point x="341" y="182"/>
      <point x="363" y="206" type="curve" smooth="yes"/>
      <point x="385" y="230"/>
      <point x="398" y="263"/>
      <point x="398" y="299" type="curve"/>
      <point x="566" y="299" type="line"/>
      <point x="566" y="219"/>
      <point x="538" y="145"/>
      <point x="483" y="88" type="curve" smooth="yes"/>
      <point x="428" y="31"/>
      <point x="357" y="-1"/>
      <point x="278" y="-1" type="curve" smooth="yes"/>
      <point x="277" y="-1" type="line" smooth="yes"/>
      <point x="198" y="-1"/>
      <point x="128" y="31"/>
      <point x="72" y="88" type="curve" smooth="yes"/>
      <point x="20" y="144"/>
      <point x="-10" y="216"/>
      <point x="-11" y="293" type="curve"/>
      <point x="-11" y="447" type="line" smooth="yes"/>
      <point x="-10" y="527"/>
      <point x="19" y="599"/>
      <point x="72" y="655" type="curve" smooth="yes"/>
      <point x="128" y="712"/>
      <point x="198" y="744"/>
      <point x="277" y="744" type="curve" smooth="yes"/>
      <point x="278" y="744" type="line" smooth="yes"/>
      <point x="357" y="744"/>
      <point x="428" y="712"/>
      <point x="483" y="655" type="curve" smooth="yes"/>
      <point x="538" y="598"/>
      <point x="566" y="524"/>
      <point x="566" y="444" type="curve"/>
      <point x="398" y="444" type="line"/>
      <point x="398" y="480"/>
      <point x="385" y="513"/>
      <point x="363" y="537" type="curve" smooth="yes"/>
      <point x="341" y="561"/>
      <point x="311" y="576"/>
      <point x="278" y="576" type="curve" smooth="yes"/>
      <point x="245" y="576"/>
      <point x="215" y="561"/>
      <point x="193" y="537" type="curve" smooth="yes"/>
      <point x="171" y="513"/>
      <point x="157" y="480"/>
      <point x="157" y="444" type="curve" smooth="yes"/>
      <point x="157" y="299" type="line" smooth="yes"/>
      <point x="157" y="263"/>
      <point x="171" y="230"/>
      <point x="193" y="206" type="curve" smooth="yes"/>
      <point x="215" y="182"/>
      <point x="245" y="167"/>
      <point x="278" y="167" type="curve" smooth="yes"/>
    </contour>
  </outline>
</glyph>
<glyph name="D" format="1">
  <advance width="581"/>
  <unicode hex="0044"/>
  <outline>
    <contour>
      <point x="526" y="272"/>
      <point x="488" y="180"/>
      <point x="416" y="108" type="curve" smooth="yes"/>
      <point x="349" y="43"/>
      <point x="264" y="5"/>
      <point x="172" y="0" type="curve"/>
      <point x="150" y="0" type="line"/>
      <point x="0" y="0" type="line"/>
      <point x="0" y="744" type="line"/>
      <point x="150" y="744" type="line" smooth="yes"/>
      <point x="250" y="744"/>
      <point x="344" y="707"/>
      <point x="416" y="636" type="curve" smooth="yes"/>
      <point x="488" y="564"/>
      <point x="526" y="472"/>
      <point x="526" y="372" type="curve" smooth="yes"/>
    </contour>
  </outline>
</glyph>
<glyph name="F" format="1">
  <advance width="522"/>
  <unicode hex="0046"/>
  <outline>
    <contour>
      <point x="169" y="576" type="line"/>
      <point x="169" y="456" type="line"/>
      <point x="381" y="456" type="line"/>
      <point x="381" y="288" type="line"/>
      <point x="169" y="288" type="line"/>
      <point x="169" y="0" type="line"/>
      <point x="1" y="0" type="line"/>
      <point x="1" y="744" type="line"/>
      <point x="457" y="744" type="line"/>
      <point x="457" y="576" type="line"/>
    </contour>
  </outline>
</glyph>
<glyph name="H" format="1">
  <advance width="614"/>
  <unicode hex="0048"/>
  <outline>
    <contour>
      <point x="535" y="744" type="line"/>
      <point x="535" y="0" type="line"/>
      <point x="367" y="0" type="line"/>
      <point x="367" y="288" type="line"/>
      <point x="168" y="288" type="line"/>
      <point x="168" y="0" type="line"/>
      <point x="0" y="0" type="line"/>
      <point x="0" y="744" type="line"/>
      <point x="168" y="744" type="line"/>
      <point x="168" y="456" type="line"/>
      <point x="367" y="456" type="line"/>
      <point x="367" y="744" type="line"/>
    </contour>
  </outline>
</glyph>
<glyph name="I" format="1">
  <advance width="239"/>
  <unicode hex="0049"/>
  <outline>
    <contour>
      <point x="168" y="0" type="line"/>
      <point x="0" y="0" type="line"/>
      <point x="0" y="744" type="line"/>
      <point x="168" y="744" type="line"/>
    </contour>
  </outline>
</glyph>
<glyph name="L" format="1">
  <advance width="431"/>
  <unicode hex="004C"/>
  <outline>
    <contour>
      <point x="367" y="168" type="line"/>
      <point x="367" y="0" type="line"/>
      <point x="0" y="0" type="line"/>
      <point x="0" y="744" type="line"/>
      <point x="168" y="744" type="line"/>
      <point x="168" y="168" type="line"/>
    </contour>
  </outline>
</glyph>
<glyph name="M" format="1">
  <advance width="761"/>
  <unicode hex="004D"/>
  <outline>
    <contour>
      <point x="689" y="744" type="line"/>
      <point x="689" y="0" type="line"/>
      <point x="521" y="0" type="line"/>
      <point x="521" y="260" type="line"/>
      <point x="430" y="0" type="line"/>
      <point x="262" y="0" type="line"/>
      <point x="169" y="268" type="line"/>
      <point x="169" y="0" type="line"/>
      <point x="1" y="0" type="line"/>
      <point x="1" y="744" type="line"/>
      <point x="172" y="744" type="line"/>
      <point x="346" y="242" type="line"/>
      <point x="521" y="744" type="line"/>
      <point x="521" y="744" type="line"/>
      <point x="689" y="744" type="line"/>
    </contour>
  </outline>
</glyph>
<glyph name="R" format="1">
  <advance width="522"/>
  <unicode hex="0052"/>
  <outline>
    <contour>
      <point x="300" y="0" type="line"/>
      <point x="170" y="282" type="line"/>
      <point x="168" y="282" type="line"/>
      <point x="168" y="0" type="line"/>
      <point x="0" y="0" type="line"/>
      <point x="0" y="744" type="line"/>
      <point x="226" y="744" type="line"/>
      <point x="227" y="744" type="line" smooth="yes"/>
      <point x="291" y="744"/>
      <point x="350" y="719"/>
      <point x="392" y="677" type="curve" smooth="yes"/>
      <point x="434" y="635"/>
      <point x="459" y="577"/>
      <point x="459" y="513" type="curve" smooth="yes"/>
      <point x="459" y="422"/>
      <point x="408" y="346"/>
      <point x="332" y="307" type="curve"/>
      <point x="473" y="0" type="line"/>
    </contour>
  </outline>
</glyph>
<glyph name="S" format="1">
  <advance width="522"/>
  <unicode hex="0053"/>
  <outline>
    <contour>
      <point x="460" y="207"/>
      <point x="457" y="185"/>
      <point x="450" y="162" type="curve" smooth="yes"/>
      <point x="435" y="115"/>
      <point x="407" y="74"/>
      <point x="368" y="46" type="curve" smooth="yes"/>
      <point x="329" y="17"/>
      <point x="282" y="0"/>
      <point x="230" y="0" type="curve" smooth="yes"/>
      <point x="166" y="0"/>
      <point x="110" y="26"/>
      <point x="68" y="68" type="curve" smooth="yes"/>
      <point x="26" y="110"/>
      <point x="0" y="167"/>
      <point x="0" y="231" type="curve"/>
      <point x="168" y="231" type="line"/>
      <point x="168" y="196"/>
      <point x="195" y="168"/>
      <point x="230" y="168" type="curve" smooth="yes"/>
      <point x="258" y="168"/>
      <point x="281" y="187"/>
      <point x="289" y="212" type="curve"/>
      <point x="291" y="217"/>
      <point x="292" y="223"/>
      <point x="292" y="230" type="curve" smooth="yes"/>
      <point x="292" y="265"/>
      <point x="265" y="288"/>
      <point x="230" y="288" type="curve" smooth="yes"/>
      <point x="166" y="288"/>
      <point x="110" y="313"/>
      <point x="68" y="354" type="curve" smooth="yes"/>
      <point x="26" y="394"/>
      <point x="0" y="450"/>
      <point x="0" y="514" type="curve" smooth="yes"/>
      <point x="0" y="537"/>
      <point x="3" y="559"/>
      <point x="10" y="582" type="curve" smooth="yes"/>
      <point x="25" y="629"/>
      <point x="53" y="670"/>
      <point x="92" y="699" type="curve" smooth="yes"/>
      <point x="131" y="727"/>
      <point x="178" y="744"/>
      <point x="230" y="744" type="curve" smooth="yes"/>
      <point x="294" y="744"/>
      <point x="351" y="719"/>
      <point x="393" y="677" type="curve" smooth="yes"/>
      <point x="435" y="635"/>
      <point x="460" y="577"/>
      <point x="460" y="514" type="curve"/>
      <point x="292" y="514" type="line"/>
      <point x="292" y="549"/>
      <point x="265" y="576"/>
      <point x="230" y="576" type="curve" smooth="yes"/>
      <point x="202" y="576"/>
      <point x="179" y="557"/>
      <point x="171" y="532" type="curve"/>
      <point x="169" y="527"/>
      <point x="168" y="521"/>
      <point x="168" y="514" type="curve" smooth="yes"/>
      <point x="168" y="479"/>
      <point x="195" y="456"/>
      <point x="230" y="456" type="curve" smooth="yes"/>
      <point x="294" y="456"/>
      <point x="351" y="431"/>
      <point x="393" y="391" type="curve" smooth="yes"/>
      <point x="435" y="350"/>
      <point x="460" y="294"/>
      <point x="460" y="231" type="curve" smooth="yes"/>
    </contour>
  </outline>
</glyph>
<glyph name="U" format="1">
  <advance width="637"/>
  <unicode hex="0055"/>
  <outline>
    <contour>
      <point x="578" y="297" type="line" smooth="yes"/>
      <point x="577" y="218"/>
      <point x="548" y="146"/>
      <point x="495" y="90" type="curve" smooth="yes"/>
      <point x="440" y="31"/>
      <point x="369" y="0"/>
      <point x="290" y="0" type="curve" smooth="yes"/>
      <point x="289" y="0" type="line" smooth="yes"/>
      <point x="212" y="0"/>
      <point x="140" y="31"/>
      <point x="84" y="90" type="curve" smooth="yes"/>
      <point x="32" y="146"/>
      <point x="2" y="218"/>
      <point x="1" y="297" type="curve"/>
      <point x="1" y="745" type="line"/>
      <point x="169" y="745" type="line"/>
      <point x="169" y="300" type="line" smooth="yes"/>
      <point x="169" y="264"/>
      <point x="183" y="231"/>
      <point x="205" y="207" type="curve" smooth="yes"/>
      <point x="227" y="183"/>
      <point x="257" y="168"/>
      <point x="290" y="168" type="curve" smooth="yes"/>
      <point x="323" y="168"/>
      <point x="353" y="183"/>
      <point x="375" y="207" type="curve" smooth="yes"/>
      <point x="397" y="231"/>
      <point x="410" y="264"/>
      <point x="410" y="300" type="curve" smooth="yes"/>
      <point x="410" y="745" type="line"/>
      <point x="578" y="745" type="line"/>
    </contour>
  </outline>
</glyph>
<glyph name="V" format="1">
  <advance width="722"/>
  <unicode hex="0056"/>
  <outline>
    <contour>
      <point x="693" y="744" type="line"/>
      <point x="434" y="0" type="line"/>
      <point x="264" y="0" type="line"/>
      <point x="5" y="744" type="line"/>
      <point x="173" y="744" type="line"/>
      <point x="349" y="238" type="line"/>
      <point x="525" y="744" type="line"/>
    </contour>
  </outline>
</glyph>
<glyph name="W" format="1">
  <advance width="963"/>
  <unicode hex="0057"/>
  <outline>
    <contour>
      <point x="902" y="744" type="line"/>
      <point x="721" y="0" type="line"/>
      <point x="550" y="0" type="line"/>
      <point x="452" y="404" type="line"/>
      <point x="354" y="0" type="line"/>
      <point x="183" y="0" type="line"/>
      <point x="2" y="744" type="line"/>
      <point x="170" y="744" type="line"/>
      <point x="269" y="340" type="line"/>
      <point x="367" y="744" type="line"/>
      <point x="538" y="744" type="line"/>
      <point x="636" y="340" type="line"/>
      <point x="734" y="744" type="line"/>
    </contour>
  </outline>
</glyph>
<glyph name="Y" format="1">
  <advance width="600"/>
  <unicode hex="0059"/>
  <outline>
    <contour>
      <point x="362" y="372" type="line"/>
      <point x="362" y="0" type="line"/>
      <point x="194" y="0" type="line"/>
      <point x="194" y="372" type="line"/>
      <point x="-7" y="744" type="line"/>
      <point x="161" y="744" type="line"/>
      <point x="278" y="528" type="line"/>
      <point x="394" y="744" type="line"/>
      <point x="562" y="744" type="line"/>
    </contour>
  </outline>
</glyph>
<glyph name="Z" format="1">
  <advance width="555"/>
  <unicode hex="005A"/>
  <outline>
    <contour>
      <point x="485" y="576" type="line"/>
      <point x="195" y="168" type="line"/>
      <point x="485" y="168" type="line"/>
      <point x="485" y="0" type="line"/>
      <point x="0" y="0" type="line"/>
      <point x="0" y="168" type="line"/>
      <point x="289" y="576" type="line"/>
      <point x="0" y="576" type="line"/>
      <point x="0" y="744" type="line"/>
      <point x="485" y="744" type="line"/>
    </contour>
  </outline>
</glyph>
<glyph name="a" format="1">
  <advance width="722"/>
  <unicode hex="0061"/>
  <outline>
    <contour>
      <point x="390" y="288" type="line"/>
      <point x="252" y="288" type="line"/>
      <point x="152" y="0" type="line"/>
      <point x="-29" y="0" type="line"/>
      <point x="229" y="744" type="line"/>
      <point x="413" y="744" type="line"/>
      <point x="671" y="0" type="line"/>
      <point x="490" y="0" type="line"/>
    </contour>
  </outline>
</glyph>
<glyph name="e" format="1">
  <advance width="522"/>
  <unicode hex="0065"/>
  <outline>
    <contour>
      <point x="168" y="576" type="line"/>
      <point x="168" y="456" type="line"/>
      <point x="380" y="456" type="line"/>
      <point x="380" y="288" type="line"/>
      <point x="168" y="288" type="line"/>
      <point x="168" y="168" type="line"/>
      <point x="456" y="168" type="line"/>
      <point x="456" y="0" type="line"/>
      <point x="0" y="0" type="line"/>
      <point x="0" y="744" type="line"/>
      <point x="456" y="744" type="line"/>
      <point x="456" y="576" type="line"/>
    </contour>
  </outline>
</glyph>
<glyph name="g" format="1">
  <advance width="650"/>
  <unicode hex="0067"/>
  <outline>
    <contour>
      <point x="569" y="299" type="line" smooth="yes"/>
      <point x="569" y="296"/>
      <point x="569" y="292"/>
      <point x="569" y="289" type="curve" smooth="yes"/>
      <point x="569" y="286"/>
      <point x="569" y="282"/>
      <point x="568" y="279" type="curve"/>
      <point x="568" y="0" type="line"/>
      <point x="413" y="0" type="line"/>
      <point x="413" y="38" type="line"/>
      <point x="373" y="14"/>
      <point x="328" y="-1"/>
      <point x="281" y="-1" type="curve" smooth="yes"/>
      <point x="280" y="-1" type="line" smooth="yes"/>
      <point x="201" y="-1"/>
      <point x="130" y="31"/>
      <point x="75" y="88" type="curve" smooth="yes"/>
      <point x="23" y="144"/>
      <point x="-7" y="216"/>
      <point x="-8" y="293" type="curve"/>
      <point x="-8" y="447" type="line" smooth="yes"/>
      <point x="-8" y="527"/>
      <point x="22" y="599"/>
      <point x="75" y="655" type="curve" smooth="yes"/>
      <point x="130" y="712"/>
      <point x="201" y="744"/>
      <point x="280" y="744" type="curve" smooth="yes"/>
      <point x="281" y="744" type="line" smooth="yes"/>
      <point x="358" y="744"/>
      <point x="430" y="712"/>
      <point x="486" y="655" type="curve" smooth="yes"/>
      <point x="539" y="598"/>
      <point x="569" y="524"/>
      <point x="569" y="444" type="curve"/>
      <point x="401" y="444" type="line"/>
      <point x="401" y="480"/>
      <point x="388" y="513"/>
      <point x="366" y="537" type="curve" smooth="yes"/>
      <point x="344" y="561"/>
      <point x="313" y="576"/>
      <point x="280" y="576" type="curve" smooth="yes"/>
      <point x="247" y="576"/>
      <point x="218" y="561"/>
      <point x="196" y="537" type="curve" smooth="yes"/>
      <point x="174" y="513"/>
      <point x="160" y="480"/>
      <point x="160" y="444" type="curve" smooth="yes"/>
      <point x="160" y="299" type="line" smooth="yes"/>
      <point x="160" y="263"/>
      <point x="174" y="230"/>
      <point x="196" y="206" type="curve" smooth="yes"/>
      <point x="218" y="182"/>
      <point x="247" y="167"/>
      <point x="280" y="167" type="curve" smooth="yes"/>
      <point x="319" y="167"/>
      <point x="350" y="186"/>
      <point x="373" y="215" type="curve"/>
      <point x="279" y="215" type="line"/>
      <point x="279" y="370" type="line"/>
      <point x="569" y="370" type="line"/>
    </contour>
  </outline>
</glyph>
<glyph name="j" format="1">
  <advance width="530"/>
  <unicode hex="006A"/>
  <outline>
    <contour>
      <point x="461" y="227" type="line" smooth="yes"/>
      <point x="460" y="164"/>
      <point x="433" y="107"/>
      <point x="392" y="67" type="curve" smooth="yes"/>
      <point x="351" y="26"/>
      <point x="293" y="0"/>
      <point x="230" y="0" type="curve" smooth="yes"/>
      <point x="166" y="0"/>
      <point x="110" y="26"/>
      <point x="68" y="68" type="curve" smooth="yes"/>
      <point x="26" y="110"/>
      <point x="0" y="167"/>
      <point x="0" y="231" type="curve"/>
      <point x="168" y="231" type="line"/>
      <point x="168" y="196"/>
      <point x="195" y="168"/>
      <point x="230" y="168" type="curve" smooth="yes"/>
      <point x="265" y="168"/>
      <point x="293" y="196"/>
      <point x="293" y="231" type="curve" smooth="yes"/>
      <point x="293" y="744" type="line"/>
      <point x="461" y="744" type="line"/>
    </contour>
  </outline>
</glyph>
<glyph name="k" format="1">
  <advance width="561"/>
  <unicode hex="006B"/>
  <outline>
    <contour>
      <point x="210" y="371" type="line"/>
      <point x="526" y="0" type="line"/>
      <point x="358" y="0" type="line"/>
      <point x="168" y="211" type="line"/>
      <point x="168" y="0" type="line"/>
      <point x="0" y="0" type="line"/>
      <point x="0" y="744" type="line"/>
      <point x="168" y="744" type="line"/>
      <point x="168" y="531" type="line"/>
      <point x="359" y="744" type="line"/>
      <point x="527" y="744" type="line"/>
    </contour>
  </outline>
</glyph>
<glyph name="l" format="1">
  <advance width="431"/>
  <unicode hex="006C"/>
  <outline>
    <contour>
      <point x="367" y="168" type="line"/>
      <point x="367" y="0" type="line"/>
      <point x="0" y="0" type="line"/>
      <point x="0" y="744" type="line"/>
      <point x="168" y="744" type="line"/>
      <point x="168" y="168" type="line"/>
    </contour>
  </outline>
</glyph>
<glyph name="m" format="1">
  <advance width="761"/>
  <unicode hex="006D"/>
  <outline>
    <contour>
      <point x="689" y="744" type="line"/>
      <point x="689" y="0" type="line"/>
      <point x="521" y="0" type="line"/>
      <point x="521" y="260" type="line"/>
      <point x="430" y="0" type="line"/>
      <point x="262" y="0" type="line"/>
      <point x="169" y="268" type="line"/>
      <point x="169" y="0" type="line"/>
      <point x="1" y="0" type="line"/>
      <point x="1" y="744" type="line"/>
      <point x="172" y="744" type="line"/>
      <point x="346" y="242" type="line"/>
      <point x="521" y="744" type="line"/>
      <point x="521" y="744" type="line"/>
      <point x="689" y="744" type="line"/>
    </contour>
  </outline>
</glyph>
<glyph name="n" format="1">
  <advance width="604"/>
  <unicode hex="006E"/>
  <outline>
    <contour>
      <point x="549" y="744" type="line"/>
      <point x="549" y="0" type="line"/>
      <point x="379" y="0" type="line"/>
      <point x="169" y="416" type="line"/>
      <point x="169" y="0" type="line"/>
      <point x="1" y="0" type="line"/>
      <point x="1" y="744" type="line"/>
      <point x="172" y="744" type="line"/>
      <point x="381" y="329" type="line"/>
      <point x="381" y="744" type="line"/>
    </contour>
  </outline>
</glyph>
<glyph name="o" format="1">
  <advance width="639"/>
  <unicode hex="006F"/>
  <outline>
    <contour>
      <point x="575" y="217"/>
      <point x="546" y="145"/>
      <point x="493" y="89" type="curve" smooth="yes"/>
      <point x="438" y="30"/>
      <point x="367" y="-1"/>
      <point x="288" y="-1" type="curve" smooth="yes"/>
      <point x="287" y="-1" type="line" smooth="yes"/>
      <point x="210" y="-1"/>
      <point x="138" y="31"/>
      <point x="82" y="88" type="curve" smooth="yes"/>
      <point x="30" y="144"/>
      <point x="0" y="216"/>
      <point x="-1" y="296" type="curve"/>
      <point x="-1" y="470" type="line"/>
      <point x="6" y="541"/>
      <point x="35" y="604"/>
      <point x="82" y="655" type="curve" smooth="yes"/>
      <point x="138" y="712"/>
      <point x="208" y="744"/>
      <point x="287" y="744" type="curve" smooth="yes"/>
      <point x="288" y="744" type="line" smooth="yes"/>
      <point x="367" y="744"/>
      <point x="438" y="712"/>
      <point x="493" y="655" type="curve" smooth="yes"/>
      <point x="541" y="604"/>
      <point x="569" y="541"/>
      <point x="576" y="470" type="curve"/>
      <point x="576" y="448" type="line"/>
      <point x="576" y="356" type="line"/>
      <point x="576" y="296" type="line" smooth="yes"/>
    </contour>
  </outline>
</glyph>
<glyph name="p" format="1">
  <advance width="497"/>
  <unicode hex="0070"/>
  <outline>
    <contour>
      <point x="291" y="744"/>
      <point x="349" y="719"/>
      <point x="391" y="677" type="curve" smooth="yes"/>
      <point x="433" y="635"/>
      <point x="458" y="577"/>
      <point x="458" y="513" type="curve" smooth="yes"/>
      <point x="458" y="449"/>
      <point x="433" y="392"/>
      <point x="391" y="350" type="curve" smooth="yes"/>
      <point x="349" y="308"/>
      <point x="291" y="282"/>
      <point x="227" y="282" type="curve" smooth="yes"/>
      <point x="226" y="282" type="line"/>
      <point x="168" y="282" type="line"/>
      <point x="168" y="0" type="line"/>
      <point x="0" y="0" type="line"/>
      <point x="0" y="744" type="line"/>
      <point x="226" y="744" type="line"/>
      <point x="227" y="744" type="line" smooth="yes"/>
    </contour>
  </outline>
</glyph>
<glyph name="q" format="1">
  <advance width="639"/>
  <unicode hex="0071"/>
  <outline>
    <contour>
      <point x="438" y="42" type="line"/>
      <point x="392" y="13"/>
      <point x="342" y="-1"/>
      <point x="289" y="-1" type="curve" smooth="yes"/>
      <point x="288" y="-1" type="line" smooth="yes"/>
      <point x="209" y="-1"/>
      <point x="138" y="31"/>
      <point x="83" y="88" type="curve" smooth="yes"/>
      <point x="30" y="144"/>
      <point x="0" y="216"/>
      <point x="0" y="296" type="curve" smooth="yes"/>
      <point x="0" y="470" type="line"/>
      <point x="5" y="541"/>
      <point x="35" y="604"/>
      <point x="83" y="655" type="curve" smooth="yes"/>
      <point x="138" y="712"/>
      <point x="209" y="744"/>
      <point x="288" y="744" type="curve" smooth="yes"/>
      <point x="289" y="744" type="line" smooth="yes"/>
      <point x="366" y="744"/>
      <point x="438" y="712"/>
      <point x="494" y="655" type="curve" smooth="yes"/>
      <point x="541" y="604"/>
      <point x="570" y="541"/>
      <point x="577" y="470" type="curve"/>
      <point x="577" y="448" type="line"/>
      <point x="577" y="356" type="line"/>
      <point x="577" y="296" type="line" smooth="yes"/>
      <point x="576" y="251"/>
      <point x="566" y="209"/>
      <point x="549" y="171" type="curve"/>
      <point x="641" y="0" type="line"/>
      <point x="461" y="0" type="line"/>
    </contour>
  </outline>
</glyph>
<glyph name="t" format="1">
  <advance width="551"/>
  <unicode hex="0074"/>
  <outline>
    <contour>
      <point x="497" y="576" type="line"/>
      <point x="328" y="576" type="line"/>
      <point x="328" y="0" type="line"/>
      <point x="160" y="0" type="line"/>
      <point x="160" y="576" type="line"/>
      <point x="-9" y="576" type="line"/>
      <point x="-9" y="744" type="line"/>
      <point x="497" y="744" type="line"/>
    </contour>
  </outline>
</glyph>
<glyph name="v" format="1">
  <advance width="722"/>
  <unicode hex="0076"/>
  <outline>
    <contour>
      <point x="693" y="744" type="line"/>
      <point x="434" y="0" type="line"/>
      <point x="264" y="0" type="line"/>
      <point x="5" y="744" type="line"/>
      <point x="173" y="744" type="line"/>
      <point x="349" y="238" type="line"/>
      <point x="525" y="744" type="line"/>
    </contour>
  </outline>
</glyph>
<glyph name="x" format="1">
  <advance width="631"/>
  <unicode hex="0078"/>
  <outline>
    <contour>
      <point x="370" y="372" type="line"/>
      <point x="570" y="0" type="line"/>
      <point x="402" y="0" type="line"/>
      <point x="286" y="216" type="line"/>
      <point x="170" y="0" type="line"/>
      <point x="2" y="0" type="line"/>
      <point x="202" y="372" type="line"/>
      <point x="2" y="744" type="line"/>
      <point x="170" y="744" type="line"/>
      <point x="286" y="528" type="line"/>
      <point x="402" y="744" type="line"/>
      <point x="570" y="744" type="line"/>
    </contour>
  </outline>
</glyph>
